<mxfile host="app.diagrams.net" modified="2023-09-30T18:04:24.157Z" agent="Mozilla/5.0 (Windows NT 10.0; Win64; x64) AppleWebKit/537.36 (KHTML, like Gecko) Chrome/117.0.0.0 Safari/537.36" etag="aQiJOEz_9IuhLmEABaqy" version="22.0.0" type="device">
  <diagram name="Page-1" id="nynezf40KgdhgwYhOfCN">
    <mxGraphModel dx="2600" dy="1990" grid="1" gridSize="10" guides="1" tooltips="1" connect="1" arrows="1" fold="1" page="1" pageScale="1" pageWidth="850" pageHeight="1100" math="0" shadow="0">
      <root>
        <mxCell id="0" />
        <mxCell id="1" parent="0" />
        <mxCell id="E8g6-MnHNmLL_-XOcsVW-1" value="&lt;font style=&quot;font-size: 16px;&quot;&gt;USER&lt;/font&gt;" style="swimlane;whiteSpace=wrap;html=1;startSize=40;strokeWidth=2;" parent="1" vertex="1">
          <mxGeometry x="-20" y="-90" width="210" height="230" as="geometry" />
        </mxCell>
        <mxCell id="w6-lN7jZAqUXAz0Pc5bC-7" value="&lt;font style=&quot;font-size: 21px;&quot;&gt;UserID (PK )&lt;/font&gt;" style="text;html=1;align=center;verticalAlign=middle;resizable=0;points=[];autosize=1;strokeColor=none;fillColor=none;" parent="E8g6-MnHNmLL_-XOcsVW-1" vertex="1">
          <mxGeometry y="60" width="140" height="40" as="geometry" />
        </mxCell>
        <mxCell id="w6-lN7jZAqUXAz0Pc5bC-11" value="&lt;font style=&quot;font-size: 21px;&quot;&gt;UserName&lt;/font&gt;" style="text;html=1;align=center;verticalAlign=middle;resizable=0;points=[];autosize=1;strokeColor=none;fillColor=none;" parent="E8g6-MnHNmLL_-XOcsVW-1" vertex="1">
          <mxGeometry y="100" width="120" height="40" as="geometry" />
        </mxCell>
        <mxCell id="w6-lN7jZAqUXAz0Pc5bC-12" value="&lt;span style=&quot;font-size: 21px;&quot;&gt;Password&lt;/span&gt;" style="text;html=1;align=center;verticalAlign=middle;resizable=0;points=[];autosize=1;strokeColor=none;fillColor=none;" parent="E8g6-MnHNmLL_-XOcsVW-1" vertex="1">
          <mxGeometry y="140" width="120" height="40" as="geometry" />
        </mxCell>
        <mxCell id="w6-lN7jZAqUXAz0Pc5bC-13" value="&lt;span style=&quot;font-size: 21px;&quot;&gt;Email&lt;/span&gt;" style="text;html=1;align=center;verticalAlign=middle;resizable=0;points=[];autosize=1;strokeColor=none;fillColor=none;" parent="E8g6-MnHNmLL_-XOcsVW-1" vertex="1">
          <mxGeometry y="180" width="80" height="40" as="geometry" />
        </mxCell>
        <mxCell id="w6-lN7jZAqUXAz0Pc5bC-9" value="&lt;font style=&quot;font-size: 16px;&quot;&gt;DEVICE&lt;/font&gt;" style="swimlane;whiteSpace=wrap;html=1;startSize=40;strokeWidth=2;" parent="1" vertex="1">
          <mxGeometry x="740" y="-107" width="210" height="230" as="geometry" />
        </mxCell>
        <mxCell id="w6-lN7jZAqUXAz0Pc5bC-10" value="&lt;font style=&quot;font-size: 21px;&quot;&gt;DeviceID (PK)&lt;/font&gt;" style="text;html=1;align=center;verticalAlign=middle;resizable=0;points=[];autosize=1;strokeColor=none;fillColor=none;" parent="w6-lN7jZAqUXAz0Pc5bC-9" vertex="1">
          <mxGeometry x="5" y="60" width="160" height="40" as="geometry" />
        </mxCell>
        <mxCell id="w6-lN7jZAqUXAz0Pc5bC-14" value="&lt;font style=&quot;font-size: 21px;&quot;&gt;UserID (FK)&lt;/font&gt;" style="text;html=1;align=center;verticalAlign=middle;resizable=0;points=[];autosize=1;strokeColor=none;fillColor=none;" parent="w6-lN7jZAqUXAz0Pc5bC-9" vertex="1">
          <mxGeometry x="5" y="101" width="140" height="40" as="geometry" />
        </mxCell>
        <mxCell id="w6-lN7jZAqUXAz0Pc5bC-15" value="&lt;span style=&quot;font-size: 21px;&quot;&gt;Device Name&lt;/span&gt;" style="text;html=1;align=center;verticalAlign=middle;resizable=0;points=[];autosize=1;strokeColor=none;fillColor=none;" parent="w6-lN7jZAqUXAz0Pc5bC-9" vertex="1">
          <mxGeometry x="10" y="141" width="150" height="40" as="geometry" />
        </mxCell>
        <mxCell id="w6-lN7jZAqUXAz0Pc5bC-16" value="&lt;span style=&quot;font-size: 21px;&quot;&gt;Wifi Name&lt;/span&gt;" style="text;html=1;align=center;verticalAlign=middle;resizable=0;points=[];autosize=1;strokeColor=none;fillColor=none;" parent="w6-lN7jZAqUXAz0Pc5bC-9" vertex="1">
          <mxGeometry x="10" y="181" width="120" height="40" as="geometry" />
        </mxCell>
        <mxCell id="w6-lN7jZAqUXAz0Pc5bC-23" value="&lt;span style=&quot;font-size: 16px;&quot;&gt;SUBSCRIPTION&lt;/span&gt;" style="swimlane;whiteSpace=wrap;html=1;startSize=40;strokeWidth=2;" parent="1" vertex="1">
          <mxGeometry x="730" y="390" width="250" height="290" as="geometry" />
        </mxCell>
        <mxCell id="w6-lN7jZAqUXAz0Pc5bC-24" value="&lt;font style=&quot;font-size: 21px;&quot;&gt;Subscription ID (PK)&lt;/font&gt;" style="text;html=1;align=center;verticalAlign=middle;resizable=0;points=[];autosize=1;strokeColor=none;fillColor=none;" parent="w6-lN7jZAqUXAz0Pc5bC-23" vertex="1">
          <mxGeometry x="10" y="60" width="210" height="40" as="geometry" />
        </mxCell>
        <mxCell id="w6-lN7jZAqUXAz0Pc5bC-25" value="&lt;span style=&quot;font-size: 21px;&quot;&gt;User ID (FK)&lt;/span&gt;" style="text;html=1;align=center;verticalAlign=middle;resizable=0;points=[];autosize=1;strokeColor=none;fillColor=none;" parent="w6-lN7jZAqUXAz0Pc5bC-23" vertex="1">
          <mxGeometry x="10" y="100" width="140" height="40" as="geometry" />
        </mxCell>
        <mxCell id="w6-lN7jZAqUXAz0Pc5bC-26" value="&lt;span style=&quot;font-size: 21px;&quot;&gt;Provider ID( FK)&lt;/span&gt;" style="text;html=1;align=center;verticalAlign=middle;resizable=0;points=[];autosize=1;strokeColor=none;fillColor=none;" parent="w6-lN7jZAqUXAz0Pc5bC-23" vertex="1">
          <mxGeometry x="10" y="140" width="180" height="40" as="geometry" />
        </mxCell>
        <mxCell id="w6-lN7jZAqUXAz0Pc5bC-27" value="&lt;span style=&quot;font-size: 21px;&quot;&gt;Subscription date&lt;/span&gt;" style="text;html=1;align=center;verticalAlign=middle;resizable=0;points=[];autosize=1;strokeColor=none;fillColor=none;" parent="w6-lN7jZAqUXAz0Pc5bC-23" vertex="1">
          <mxGeometry x="10" y="180" width="190" height="40" as="geometry" />
        </mxCell>
        <mxCell id="w6-lN7jZAqUXAz0Pc5bC-28" value="&lt;span style=&quot;font-size: 21px;&quot;&gt;Expiry date&lt;/span&gt;" style="text;html=1;align=center;verticalAlign=middle;resizable=0;points=[];autosize=1;strokeColor=none;fillColor=none;" parent="w6-lN7jZAqUXAz0Pc5bC-23" vertex="1">
          <mxGeometry x="10" y="230" width="130" height="40" as="geometry" />
        </mxCell>
        <mxCell id="w6-lN7jZAqUXAz0Pc5bC-44" value="&lt;span style=&quot;font-size: 16px;&quot;&gt;Content Provider&lt;/span&gt;" style="swimlane;whiteSpace=wrap;html=1;startSize=40;strokeWidth=2;" parent="1" vertex="1">
          <mxGeometry x="1290" y="430" width="210" height="230" as="geometry" />
        </mxCell>
        <mxCell id="w6-lN7jZAqUXAz0Pc5bC-45" value="&lt;span style=&quot;font-size: 21px;&quot;&gt;Provider ID (PK)&amp;nbsp;&lt;/span&gt;" style="text;html=1;align=center;verticalAlign=middle;resizable=0;points=[];autosize=1;strokeColor=none;fillColor=none;" parent="w6-lN7jZAqUXAz0Pc5bC-44" vertex="1">
          <mxGeometry x="10" y="61" width="180" height="40" as="geometry" />
        </mxCell>
        <mxCell id="w6-lN7jZAqUXAz0Pc5bC-46" value="&lt;font style=&quot;font-size: 21px;&quot;&gt;&amp;nbsp;Provider Name&lt;/font&gt;" style="text;html=1;align=center;verticalAlign=middle;resizable=0;points=[];autosize=1;strokeColor=none;fillColor=none;" parent="w6-lN7jZAqUXAz0Pc5bC-44" vertex="1">
          <mxGeometry y="101" width="170" height="40" as="geometry" />
        </mxCell>
        <mxCell id="w6-lN7jZAqUXAz0Pc5bC-47" value="&lt;span style=&quot;font-size: 21px;&quot;&gt;API URL&lt;/span&gt;" style="text;html=1;align=center;verticalAlign=middle;resizable=0;points=[];autosize=1;strokeColor=none;fillColor=none;" parent="w6-lN7jZAqUXAz0Pc5bC-44" vertex="1">
          <mxGeometry x="10" y="150" width="110" height="40" as="geometry" />
        </mxCell>
        <mxCell id="w6-lN7jZAqUXAz0Pc5bC-54" value="" style="edgeStyle=entityRelationEdgeStyle;fontSize=12;html=1;endArrow=ERzeroToMany;endFill=1;rounded=0;entryX=-0.074;entryY=0.042;entryDx=0;entryDy=0;entryPerimeter=0;" parent="1" target="w6-lN7jZAqUXAz0Pc5bC-14" edge="1">
          <mxGeometry width="100" height="100" relative="1" as="geometry">
            <mxPoint x="190" as="sourcePoint" />
            <mxPoint x="410" y="410" as="targetPoint" />
          </mxGeometry>
        </mxCell>
        <mxCell id="w6-lN7jZAqUXAz0Pc5bC-55" value="" style="edgeStyle=entityRelationEdgeStyle;fontSize=12;html=1;endArrow=ERmandOne;startArrow=ERmandOne;rounded=0;entryX=-0.127;entryY=0.083;entryDx=0;entryDy=0;entryPerimeter=0;" parent="1" target="w6-lN7jZAqUXAz0Pc5bC-47" edge="1">
          <mxGeometry width="100" height="100" relative="1" as="geometry">
            <mxPoint x="980" y="560" as="sourcePoint" />
            <mxPoint x="410" y="410" as="targetPoint" />
          </mxGeometry>
        </mxCell>
        <mxCell id="w6-lN7jZAqUXAz0Pc5bC-57" value="" style="edgeStyle=entityRelationEdgeStyle;fontSize=12;html=1;endArrow=ERoneToMany;rounded=0;exitX=1;exitY=0.75;exitDx=0;exitDy=0;" parent="1" edge="1" source="E8g6-MnHNmLL_-XOcsVW-1">
          <mxGeometry width="100" height="100" relative="1" as="geometry">
            <mxPoint x="200" y="120" as="sourcePoint" />
            <mxPoint x="730" y="460" as="targetPoint" />
          </mxGeometry>
        </mxCell>
        <mxCell id="w6-lN7jZAqUXAz0Pc5bC-58" value="&lt;font style=&quot;font-size: 23px;&quot;&gt;has&lt;/font&gt;" style="text;html=1;align=center;verticalAlign=middle;resizable=0;points=[];autosize=1;strokeColor=none;fillColor=none;" parent="1" vertex="1">
          <mxGeometry x="450" y="-60" width="60" height="40" as="geometry" />
        </mxCell>
        <mxCell id="o1QO_N19_uJZKmOy-yTO-1" value="&lt;font style=&quot;font-size: 19px;&quot;&gt;Wifi Network&lt;/font&gt;" style="swimlane;whiteSpace=wrap;html=1;startSize=40;strokeWidth=2;" vertex="1" parent="1">
          <mxGeometry x="50" y="520" width="210" height="230" as="geometry" />
        </mxCell>
        <mxCell id="o1QO_N19_uJZKmOy-yTO-2" value="&lt;font style=&quot;font-size: 21px;&quot;&gt;WifiID (PK )&lt;/font&gt;" style="text;html=1;align=center;verticalAlign=middle;resizable=0;points=[];autosize=1;strokeColor=none;fillColor=none;" vertex="1" parent="o1QO_N19_uJZKmOy-yTO-1">
          <mxGeometry x="5" y="60" width="130" height="40" as="geometry" />
        </mxCell>
        <mxCell id="o1QO_N19_uJZKmOy-yTO-3" value="&lt;span style=&quot;font-size: 21px;&quot;&gt;WifiName&lt;/span&gt;" style="text;html=1;align=center;verticalAlign=middle;resizable=0;points=[];autosize=1;strokeColor=none;fillColor=none;" vertex="1" parent="o1QO_N19_uJZKmOy-yTO-1">
          <mxGeometry x="5" y="100" width="110" height="40" as="geometry" />
        </mxCell>
        <mxCell id="o1QO_N19_uJZKmOy-yTO-4" value="&lt;span style=&quot;font-size: 21px;&quot;&gt;Password&lt;/span&gt;" style="text;html=1;align=center;verticalAlign=middle;resizable=0;points=[];autosize=1;strokeColor=none;fillColor=none;" vertex="1" parent="o1QO_N19_uJZKmOy-yTO-1">
          <mxGeometry y="140" width="120" height="40" as="geometry" />
        </mxCell>
        <mxCell id="o1QO_N19_uJZKmOy-yTO-8" value="" style="edgeStyle=entityRelationEdgeStyle;fontSize=12;html=1;endArrow=ERmandOne;rounded=0;entryX=0.5;entryY=0;entryDx=0;entryDy=0;exitX=0.5;exitY=1;exitDx=0;exitDy=0;" edge="1" parent="1" source="E8g6-MnHNmLL_-XOcsVW-1" target="o1QO_N19_uJZKmOy-yTO-1">
          <mxGeometry width="100" height="100" relative="1" as="geometry">
            <mxPoint x="160" y="310" as="sourcePoint" />
            <mxPoint x="860" y="500" as="targetPoint" />
            <Array as="points">
              <mxPoint x="370" y="520" />
            </Array>
          </mxGeometry>
        </mxCell>
        <mxCell id="o1QO_N19_uJZKmOy-yTO-9" value="&lt;font style=&quot;font-size: 23px;&quot;&gt;has&lt;/font&gt;" style="text;html=1;align=center;verticalAlign=middle;resizable=0;points=[];autosize=1;strokeColor=none;fillColor=none;" vertex="1" parent="1">
          <mxGeometry x="130" y="350" width="60" height="40" as="geometry" />
        </mxCell>
        <mxCell id="o1QO_N19_uJZKmOy-yTO-10" value="&lt;font style=&quot;font-size: 23px;&quot;&gt;has&lt;/font&gt;" style="text;html=1;align=center;verticalAlign=middle;resizable=0;points=[];autosize=1;strokeColor=none;fillColor=none;" vertex="1" parent="1">
          <mxGeometry x="490" y="273" width="60" height="40" as="geometry" />
        </mxCell>
        <mxCell id="o1QO_N19_uJZKmOy-yTO-12" value="&lt;span style=&quot;font-size: 23px;&quot;&gt;provides&lt;/span&gt;" style="text;html=1;align=center;verticalAlign=middle;resizable=0;points=[];autosize=1;strokeColor=none;fillColor=none;" vertex="1" parent="1">
          <mxGeometry x="1100" y="515" width="110" height="40" as="geometry" />
        </mxCell>
        <mxCell id="o1QO_N19_uJZKmOy-yTO-13" value="&lt;font style=&quot;font-size: 19px;&quot;&gt;Remote Control&lt;/font&gt;" style="swimlane;whiteSpace=wrap;html=1;startSize=40;strokeWidth=2;" vertex="1" parent="1">
          <mxGeometry x="-370" y="420" width="210" height="230" as="geometry" />
        </mxCell>
        <mxCell id="o1QO_N19_uJZKmOy-yTO-14" value="&lt;font style=&quot;font-size: 21px;&quot;&gt;RemoteID (PK )&lt;/font&gt;" style="text;html=1;align=center;verticalAlign=middle;resizable=0;points=[];autosize=1;strokeColor=none;fillColor=none;" vertex="1" parent="o1QO_N19_uJZKmOy-yTO-13">
          <mxGeometry y="60" width="170" height="40" as="geometry" />
        </mxCell>
        <mxCell id="o1QO_N19_uJZKmOy-yTO-15" value="&lt;font style=&quot;font-size: 21px;&quot;&gt;Device name (FK)&lt;/font&gt;" style="text;html=1;align=center;verticalAlign=middle;resizable=0;points=[];autosize=1;strokeColor=none;fillColor=none;" vertex="1" parent="o1QO_N19_uJZKmOy-yTO-13">
          <mxGeometry y="100" width="190" height="40" as="geometry" />
        </mxCell>
        <mxCell id="o1QO_N19_uJZKmOy-yTO-16" value="&lt;span style=&quot;font-size: 21px;&quot;&gt;Buttons&lt;/span&gt;" style="text;html=1;align=center;verticalAlign=middle;resizable=0;points=[];autosize=1;strokeColor=none;fillColor=none;" vertex="1" parent="o1QO_N19_uJZKmOy-yTO-13">
          <mxGeometry y="150" width="90" height="40" as="geometry" />
        </mxCell>
        <mxCell id="o1QO_N19_uJZKmOy-yTO-18" value="" style="edgeStyle=entityRelationEdgeStyle;fontSize=12;html=1;endArrow=ERmandOne;startArrow=ERmandOne;rounded=0;exitX=1;exitY=0.5;exitDx=0;exitDy=0;entryX=-0.058;entryY=-0.125;entryDx=0;entryDy=0;entryPerimeter=0;" edge="1" parent="1" source="o1QO_N19_uJZKmOy-yTO-13" target="w6-lN7jZAqUXAz0Pc5bC-11">
          <mxGeometry width="100" height="100" relative="1" as="geometry">
            <mxPoint x="570" y="650" as="sourcePoint" />
            <mxPoint x="670" y="550" as="targetPoint" />
            <Array as="points">
              <mxPoint x="30" y="110" />
            </Array>
          </mxGeometry>
        </mxCell>
        <mxCell id="o1QO_N19_uJZKmOy-yTO-20" value="&lt;span style=&quot;font-size: 23px;&quot;&gt;control&lt;/span&gt;" style="text;html=1;align=center;verticalAlign=middle;resizable=0;points=[];autosize=1;strokeColor=none;fillColor=none;" vertex="1" parent="1">
          <mxGeometry x="-145" y="273" width="90" height="40" as="geometry" />
        </mxCell>
        <mxCell id="o1QO_N19_uJZKmOy-yTO-23" value="&lt;span style=&quot;font-size: 16px;&quot;&gt;Content Search&lt;/span&gt;" style="swimlane;whiteSpace=wrap;html=1;startSize=40;strokeWidth=2;" vertex="1" parent="1">
          <mxGeometry x="1260" y="-130" width="210" height="230" as="geometry" />
        </mxCell>
        <mxCell id="o1QO_N19_uJZKmOy-yTO-24" value="&lt;font style=&quot;font-size: 21px;&quot;&gt;SearchID (PK)&lt;/font&gt;" style="text;html=1;align=center;verticalAlign=middle;resizable=0;points=[];autosize=1;strokeColor=none;fillColor=none;" vertex="1" parent="o1QO_N19_uJZKmOy-yTO-23">
          <mxGeometry x="5" y="60" width="160" height="40" as="geometry" />
        </mxCell>
        <mxCell id="o1QO_N19_uJZKmOy-yTO-25" value="&lt;font style=&quot;font-size: 21px;&quot;&gt;UserID (FK)&lt;/font&gt;" style="text;html=1;align=center;verticalAlign=middle;resizable=0;points=[];autosize=1;strokeColor=none;fillColor=none;" vertex="1" parent="o1QO_N19_uJZKmOy-yTO-23">
          <mxGeometry x="5" y="101" width="140" height="40" as="geometry" />
        </mxCell>
        <mxCell id="o1QO_N19_uJZKmOy-yTO-26" value="&lt;span style=&quot;font-size: 21px;&quot;&gt;Search&lt;/span&gt;" style="text;html=1;align=center;verticalAlign=middle;resizable=0;points=[];autosize=1;strokeColor=none;fillColor=none;" vertex="1" parent="o1QO_N19_uJZKmOy-yTO-23">
          <mxGeometry x="15" y="141" width="90" height="40" as="geometry" />
        </mxCell>
        <mxCell id="o1QO_N19_uJZKmOy-yTO-27" value="&lt;span style=&quot;font-size: 21px;&quot;&gt;Results&lt;/span&gt;" style="text;html=1;align=center;verticalAlign=middle;resizable=0;points=[];autosize=1;strokeColor=none;fillColor=none;" vertex="1" parent="o1QO_N19_uJZKmOy-yTO-23">
          <mxGeometry x="15" y="181" width="90" height="40" as="geometry" />
        </mxCell>
        <mxCell id="o1QO_N19_uJZKmOy-yTO-30" value="" style="edgeStyle=entityRelationEdgeStyle;fontSize=12;html=1;endArrow=ERoneToMany;rounded=0;entryX=-0.03;entryY=-0.228;entryDx=0;entryDy=0;entryPerimeter=0;exitX=1;exitY=0.5;exitDx=0;exitDy=0;" edge="1" parent="1" source="w6-lN7jZAqUXAz0Pc5bC-9" target="o1QO_N19_uJZKmOy-yTO-25">
          <mxGeometry width="100" height="100" relative="1" as="geometry">
            <mxPoint x="560" y="610" as="sourcePoint" />
            <mxPoint x="660" y="510" as="targetPoint" />
          </mxGeometry>
        </mxCell>
        <mxCell id="o1QO_N19_uJZKmOy-yTO-31" value="&lt;font style=&quot;font-size: 23px;&quot;&gt;searches for&lt;/font&gt;" style="text;html=1;align=center;verticalAlign=middle;resizable=0;points=[];autosize=1;strokeColor=none;fillColor=none;" vertex="1" parent="1">
          <mxGeometry x="1040" y="10" width="150" height="40" as="geometry" />
        </mxCell>
        <mxCell id="o1QO_N19_uJZKmOy-yTO-35" value="" style="edgeStyle=entityRelationEdgeStyle;fontSize=12;html=1;endArrow=ERmandOne;startArrow=ERmandOne;rounded=0;entryX=-0.126;entryY=0.389;entryDx=0;entryDy=0;entryPerimeter=0;" edge="1" parent="1" target="w6-lN7jZAqUXAz0Pc5bC-16">
          <mxGeometry width="100" height="100" relative="1" as="geometry">
            <mxPoint x="260" y="590" as="sourcePoint" />
            <mxPoint x="650" y="340" as="targetPoint" />
          </mxGeometry>
        </mxCell>
        <mxCell id="o1QO_N19_uJZKmOy-yTO-37" value="&lt;font style=&quot;font-size: 23px;&quot;&gt;connects to&lt;/font&gt;" style="text;html=1;align=center;verticalAlign=middle;resizable=0;points=[];autosize=1;strokeColor=none;fillColor=none;" vertex="1" parent="1">
          <mxGeometry x="385" y="470" width="140" height="40" as="geometry" />
        </mxCell>
        <mxCell id="o1QO_N19_uJZKmOy-yTO-38" value="&lt;font style=&quot;font-size: 22px;&quot;&gt;Streaming provider&lt;/font&gt;" style="swimlane;whiteSpace=wrap;html=1;startSize=40;strokeWidth=2;" vertex="1" parent="1">
          <mxGeometry x="-330" y="-470" width="210" height="230" as="geometry" />
        </mxCell>
        <mxCell id="o1QO_N19_uJZKmOy-yTO-39" value="&lt;font style=&quot;font-size: 21px;&quot;&gt;ProviderID (PK )&lt;/font&gt;" style="text;html=1;align=center;verticalAlign=middle;resizable=0;points=[];autosize=1;strokeColor=none;fillColor=none;" vertex="1" parent="o1QO_N19_uJZKmOy-yTO-38">
          <mxGeometry y="60" width="180" height="40" as="geometry" />
        </mxCell>
        <mxCell id="o1QO_N19_uJZKmOy-yTO-40" value="&lt;font style=&quot;font-size: 21px;&quot;&gt;ProviderName&lt;/font&gt;" style="text;html=1;align=center;verticalAlign=middle;resizable=0;points=[];autosize=1;strokeColor=none;fillColor=none;" vertex="1" parent="o1QO_N19_uJZKmOy-yTO-38">
          <mxGeometry y="100" width="160" height="40" as="geometry" />
        </mxCell>
        <mxCell id="o1QO_N19_uJZKmOy-yTO-42" value="&lt;span style=&quot;font-size: 21px;&quot;&gt;URL&lt;/span&gt;" style="text;html=1;align=center;verticalAlign=middle;resizable=0;points=[];autosize=1;strokeColor=none;fillColor=none;" vertex="1" parent="o1QO_N19_uJZKmOy-yTO-38">
          <mxGeometry y="150" width="70" height="40" as="geometry" />
        </mxCell>
        <mxCell id="o1QO_N19_uJZKmOy-yTO-43" value="&lt;span style=&quot;font-size: 22px;&quot;&gt;API&amp;nbsp; Standards&lt;/span&gt;" style="swimlane;whiteSpace=wrap;html=1;startSize=40;strokeWidth=2;" vertex="1" parent="1">
          <mxGeometry x="315" y="-500" width="210" height="230" as="geometry" />
        </mxCell>
        <mxCell id="o1QO_N19_uJZKmOy-yTO-44" value="&lt;font style=&quot;font-size: 21px;&quot;&gt;APIID (PK )&lt;/font&gt;" style="text;html=1;align=center;verticalAlign=middle;resizable=0;points=[];autosize=1;strokeColor=none;fillColor=none;" vertex="1" parent="o1QO_N19_uJZKmOy-yTO-43">
          <mxGeometry x="25" y="60" width="130" height="40" as="geometry" />
        </mxCell>
        <mxCell id="o1QO_N19_uJZKmOy-yTO-45" value="&lt;span style=&quot;font-size: 21px;&quot;&gt;API Version&lt;/span&gt;" style="text;html=1;align=center;verticalAlign=middle;resizable=0;points=[];autosize=1;strokeColor=none;fillColor=none;" vertex="1" parent="o1QO_N19_uJZKmOy-yTO-43">
          <mxGeometry x="15" y="100" width="130" height="40" as="geometry" />
        </mxCell>
        <mxCell id="o1QO_N19_uJZKmOy-yTO-46" value="&lt;span style=&quot;font-size: 21px;&quot;&gt;Provider ID (FK)&lt;/span&gt;" style="text;html=1;align=center;verticalAlign=middle;resizable=0;points=[];autosize=1;strokeColor=none;fillColor=none;" vertex="1" parent="o1QO_N19_uJZKmOy-yTO-43">
          <mxGeometry x="15" y="140" width="180" height="40" as="geometry" />
        </mxCell>
        <mxCell id="o1QO_N19_uJZKmOy-yTO-47" value="" style="edgeStyle=entityRelationEdgeStyle;fontSize=12;html=1;endArrow=ERoneToMany;rounded=0;exitX=1;exitY=0.5;exitDx=0;exitDy=0;entryX=0;entryY=0.5;entryDx=0;entryDy=0;" edge="1" parent="1" source="o1QO_N19_uJZKmOy-yTO-38" target="o1QO_N19_uJZKmOy-yTO-43">
          <mxGeometry width="100" height="100" relative="1" as="geometry">
            <mxPoint x="770" y="60" as="sourcePoint" />
            <mxPoint x="870" y="-40" as="targetPoint" />
            <Array as="points">
              <mxPoint x="310" y="-420" />
            </Array>
          </mxGeometry>
        </mxCell>
        <mxCell id="o1QO_N19_uJZKmOy-yTO-48" value="&lt;span style=&quot;font-size: 23px;&quot;&gt;Implements&amp;nbsp;&lt;/span&gt;" style="text;html=1;align=center;verticalAlign=middle;resizable=0;points=[];autosize=1;strokeColor=none;fillColor=none;" vertex="1" parent="1">
          <mxGeometry x="25" y="-430" width="150" height="40" as="geometry" />
        </mxCell>
        <mxCell id="o1QO_N19_uJZKmOy-yTO-49" value="" style="edgeStyle=entityRelationEdgeStyle;fontSize=12;html=1;endArrow=ERmany;startArrow=ERmany;rounded=0;entryX=-0.061;entryY=1.275;entryDx=0;entryDy=0;entryPerimeter=0;" edge="1" parent="1" target="o1QO_N19_uJZKmOy-yTO-46">
          <mxGeometry width="100" height="100" relative="1" as="geometry">
            <mxPoint x="190" y="-20" as="sourcePoint" />
            <mxPoint x="870" y="-40" as="targetPoint" />
            <Array as="points">
              <mxPoint x="390" y="-320" />
            </Array>
          </mxGeometry>
        </mxCell>
        <mxCell id="o1QO_N19_uJZKmOy-yTO-50" value="&lt;font style=&quot;font-size: 23px;&quot;&gt;has&lt;/font&gt;" style="text;html=1;align=center;verticalAlign=middle;resizable=0;points=[];autosize=1;strokeColor=none;fillColor=none;" vertex="1" parent="1">
          <mxGeometry x="280" y="-220" width="60" height="40" as="geometry" />
        </mxCell>
        <mxCell id="o1QO_N19_uJZKmOy-yTO-51" value="" style="ellipse;whiteSpace=wrap;html=1;align=center;dashed=1;" vertex="1" parent="1">
          <mxGeometry x="390" y="1400" width="500" height="320" as="geometry" />
        </mxCell>
        <mxCell id="o1QO_N19_uJZKmOy-yTO-52" value="&lt;font style=&quot;font-size: 16px;&quot;&gt;database&amp;nbsp;&lt;br&gt;&lt;span style=&quot;color: rgb(32, 33, 36); font-family: &amp;quot;Google Sans&amp;quot;, Roboto-medium, arial, sans-serif-medium, sans-serif; text-align: left; background-color: rgb(255, 255, 255);&quot;&gt;administrators&lt;/span&gt;&lt;/font&gt;&lt;span style=&quot;font-size: 19px;&quot;&gt;&lt;br&gt;&lt;/span&gt;" style="shape=umlActor;verticalLabelPosition=bottom;verticalAlign=top;html=1;" vertex="1" parent="1">
          <mxGeometry x="450" y="1810" width="90" height="140" as="geometry" />
        </mxCell>
        <mxCell id="o1QO_N19_uJZKmOy-yTO-55" value="&lt;span style=&quot;font-size: 19px;&quot;&gt;System &lt;br&gt;Administrators&lt;br&gt;&lt;/span&gt;" style="shape=umlActor;verticalLabelPosition=bottom;verticalAlign=top;html=1;" vertex="1" parent="1">
          <mxGeometry x="140" y="1680" width="90" height="140" as="geometry" />
        </mxCell>
        <mxCell id="o1QO_N19_uJZKmOy-yTO-57" value="&lt;font style=&quot;font-size: 19px;&quot;&gt;User&lt;/font&gt;" style="shape=umlActor;verticalLabelPosition=bottom;verticalAlign=top;html=1;" vertex="1" parent="1">
          <mxGeometry x="160" y="1450" width="90" height="140" as="geometry" />
        </mxCell>
        <mxCell id="o1QO_N19_uJZKmOy-yTO-59" value="&lt;span style=&quot;font-size: 11px;&quot;&gt;Customer support&lt;br&gt;Staff&lt;br&gt;&lt;br&gt;&lt;/span&gt;" style="shape=umlActor;verticalLabelPosition=bottom;verticalAlign=top;html=1;" vertex="1" parent="1">
          <mxGeometry x="960" y="1790" width="90" height="140" as="geometry" />
        </mxCell>
        <mxCell id="o1QO_N19_uJZKmOy-yTO-60" value="&lt;span style=&quot;font-size: 11px;&quot;&gt;External &lt;br&gt;Streaming&lt;/span&gt;" style="shape=umlActor;verticalLabelPosition=bottom;verticalAlign=top;html=1;" vertex="1" parent="1">
          <mxGeometry x="760" y="1830" width="90" height="140" as="geometry" />
        </mxCell>
        <mxCell id="o1QO_N19_uJZKmOy-yTO-61" value="" style="endArrow=classic;startArrow=classic;html=1;rounded=0;" edge="1" parent="1">
          <mxGeometry width="50" height="50" relative="1" as="geometry">
            <mxPoint x="260" y="1540" as="sourcePoint" />
            <mxPoint x="435" y="1559" as="targetPoint" />
          </mxGeometry>
        </mxCell>
        <mxCell id="o1QO_N19_uJZKmOy-yTO-63" value="" style="endArrow=classic;startArrow=classic;html=1;rounded=0;" edge="1" parent="1">
          <mxGeometry width="50" height="50" relative="1" as="geometry">
            <mxPoint x="250" y="1750" as="sourcePoint" />
            <mxPoint x="492.9939065688591" y="1640.0030467155702" as="targetPoint" />
          </mxGeometry>
        </mxCell>
        <mxCell id="o1QO_N19_uJZKmOy-yTO-65" value="" style="endArrow=classic;startArrow=classic;html=1;rounded=0;" edge="1" parent="1" target="o1QO_N19_uJZKmOy-yTO-51">
          <mxGeometry width="50" height="50" relative="1" as="geometry">
            <mxPoint x="490" y="1800" as="sourcePoint" />
            <mxPoint x="502.9939065688591" y="1650.0030467155702" as="targetPoint" />
          </mxGeometry>
        </mxCell>
        <mxCell id="o1QO_N19_uJZKmOy-yTO-66" value="" style="endArrow=classic;startArrow=classic;html=1;rounded=0;" edge="1" parent="1" target="o1QO_N19_uJZKmOy-yTO-51">
          <mxGeometry width="50" height="50" relative="1" as="geometry">
            <mxPoint x="790" y="1790" as="sourcePoint" />
            <mxPoint x="502.9939065688591" y="1650.0030467155702" as="targetPoint" />
          </mxGeometry>
        </mxCell>
        <mxCell id="o1QO_N19_uJZKmOy-yTO-67" value="" style="endArrow=classic;startArrow=classic;html=1;rounded=0;entryX=0.919;entryY=0.827;entryDx=0;entryDy=0;entryPerimeter=0;" edge="1" parent="1" source="o1QO_N19_uJZKmOy-yTO-59" target="o1QO_N19_uJZKmOy-yTO-51">
          <mxGeometry width="50" height="50" relative="1" as="geometry">
            <mxPoint x="260" y="1760" as="sourcePoint" />
            <mxPoint x="502.9939065688591" y="1650.0030467155702" as="targetPoint" />
          </mxGeometry>
        </mxCell>
        <mxCell id="o1QO_N19_uJZKmOy-yTO-69" value="" style="whiteSpace=wrap;html=1;aspect=fixed;" vertex="1" parent="1">
          <mxGeometry x="940" y="1380" width="280" height="280" as="geometry" />
        </mxCell>
        <mxCell id="o1QO_N19_uJZKmOy-yTO-70" value="&lt;span style=&quot;font-size: 19px;&quot;&gt;Streaming&amp;nbsp;&lt;br&gt;data&lt;br&gt;&lt;/span&gt;" style="shape=umlActor;verticalLabelPosition=bottom;verticalAlign=top;html=1;" vertex="1" parent="1">
          <mxGeometry x="1000" y="1440" width="90" height="140" as="geometry" />
        </mxCell>
        <mxCell id="o1QO_N19_uJZKmOy-yTO-73" value="" style="rounded=0;whiteSpace=wrap;html=1;" vertex="1" parent="1">
          <mxGeometry x="540" y="1475" width="200" height="110" as="geometry" />
        </mxCell>
        <mxCell id="o1QO_N19_uJZKmOy-yTO-74" value="Text" style="text;html=1;strokeColor=none;fillColor=none;align=center;verticalAlign=middle;whiteSpace=wrap;rounded=0;" vertex="1" parent="1">
          <mxGeometry x="360" y="1700" width="60" height="30" as="geometry" />
        </mxCell>
        <mxCell id="o1QO_N19_uJZKmOy-yTO-75" value="&lt;font style=&quot;font-size: 21px;&quot;&gt;SIX Streaming&lt;br&gt;&amp;nbsp;System&lt;/font&gt;" style="text;html=1;align=center;verticalAlign=middle;resizable=0;points=[];autosize=1;strokeColor=none;fillColor=none;" vertex="1" parent="1">
          <mxGeometry x="560" y="1500" width="160" height="60" as="geometry" />
        </mxCell>
      </root>
    </mxGraphModel>
  </diagram>
</mxfile>
